# xmcd CD database file
#
# Track frame offsets:
#	150
#	23247
#	48360
#	67887
#	94057
#	113202
#	135577
#	159755
#	187192
#	204957
#
# Disc length: 3173 seconds
#
# Revision: 0
# Processed by: cddbd v1.5PL3 Copyright (c) Steve Scherf et al.
# Submitted via: CDex 1.51
#
DISCID=7d0c630a
DTITLE=MEYOU - MUSEUM
DYEAR=1992
DGENRE=JPop
TTITLE0=HEY! GIRL!
TTITLE1=STRIPPER LADY
TTITLE2=BURNING LOVE
TTITLE3=DANGEROUS BOY
TTITLE4=ルールなんてないわ
TTITLE5=DEEP DEEP NIGHT
TTITLE6=SPY OUT YOU
TTITLE7=(MERO)2にして
TTITLE8=WHY ?
TTITLE9=MOTHER
EXTD=YEAR: 1992.07.23
EXTT0=
EXTT1=
EXTT2=
EXTT3=
EXTT4=
EXTT5=
EXTT6=
EXTT7=
EXTT8=
EXTT9=
PLAYORDER=
